<?xml version="1.0" encoding="UTF-8"?>
<svg id="Layer_2" data-name="Layer 2" xmlns="http://www.w3.org/2000/svg" viewBox="0 0 902.94 902.94">
  <g id="Layer_1-2" data-name="Layer 1">
    <g>
      <path d="M272.06,689.76v-62.71c0-3.48,2.09-5.57,5.57-5.57h126.81l.7-105.21-.7-105.9h-119.84c-3.48,0-5.57-2.09-5.57-5.57v-62.71c0-3.48,2.09-5.57,5.57-5.57h220.17c3.48,0,5.57,1.74,5.57,5.57l-1.39,174.88.7,104.51h115.66c3.48,0,5.57,2.09,5.57,5.57v62.71c0,3.48-2.09,5.57-5.57,5.57h-347.67c-3.48,0-5.57-2.09-5.57-5.57ZM404.44,296.1v-82.91c0-3.48,2.09-5.57,5.57-5.57h94.76c3.48,0,5.57,2.09,5.57,5.57v82.91c0,3.48-2.09,5.57-5.57,5.57h-94.76c-3.48,0-5.57-2.09-5.57-5.57Z"/>
      <path d="M451.47,902.94c-60.93,0-120.06-11.94-175.74-35.49-53.77-22.74-102.04-55.29-143.49-96.74-41.45-41.45-74-89.73-96.74-143.5C11.94,571.53,0,512.4,0,451.47s11.94-120.06,35.49-175.74c22.74-53.77,55.29-102.04,96.74-143.49,41.45-41.45,89.73-74,143.49-96.74C331.41,11.94,390.54,0,451.47,0s120.06,11.94,175.74,35.49c53.77,22.74,102.04,55.29,143.5,96.74,41.45,41.45,74,89.73,96.74,143.49,23.55,55.68,35.49,114.81,35.49,175.74s-11.94,120.06-35.49,175.74c-22.74,53.77-55.29,102.04-96.74,143.5s-89.73,74-143.5,96.74c-55.68,23.55-114.81,35.49-175.74,35.49ZM451.47,70c-101.89,0-197.69,39.68-269.74,111.73-72.05,72.05-111.73,167.85-111.73,269.74s39.68,197.69,111.73,269.74c72.05,72.05,167.85,111.73,269.74,111.73s197.69-39.68,269.74-111.73c72.05-72.05,111.73-167.85,111.73-269.74s-39.68-197.69-111.73-269.74c-72.05-72.05-167.85-111.73-269.74-111.73Z"/>
    </g>
  </g>
</svg>